# xmcd
#
# Track frame offsets: 
#        150
#        15744
#        35336
#        54282
#        72184
#        92408
#        109606
#        126654
#        156398
#        174164
#
# Disc length: 2608 seconds
#
# Revision: 5
# Processed by: cddbd v1.5.2PL0 Copyright (c) Steve Scherf et al.
# Submitted via: ExactAudioCopy v0.99pb5
#
DISCID=790a2e0a
DTITLE=Audiovision - The Calling
DYEAR=2005
DGENRE=Metal
TTITLE0=The Calling
TTITLE1=The King Is Alive
TTITLE2=Evil Or Divine
TTITLE3=The Rock Of My Soul
TTITLE4=Read Between The Lines
TTITLE5=Face To Face
TTITLE6=Show Me The Way
TTITLE7=Love Is Like Oxygen
TTITLE8=Hold Me
TTITLE9=Colors
EXTD=
EXTT0=
EXTT1=
EXTT2=
EXTT3=
EXTT4=
EXTT5=
EXTT6=
EXTT7=
EXTT8=
EXTT9=
PLAYORDER=
